<?xml version="1.0" encoding="UTF-8"?>
<svg width="960" height="960" version="1.1" viewBox="0 0 254 254" xmlns="http://www.w3.org/2000/svg" xmlns:cc="http://creativecommons.org/ns#" xmlns:dc="http://purl.org/dc/elements/1.1/" xmlns:rdf="http://www.w3.org/1999/02/22-rdf-syntax-ns#">
<metadata>
<rdf:RDF>
<cc:Work rdf:about="">
<dc:format>image/svg+xml</dc:format>
<dc:type rdf:resource="http://purl.org/dc/dcmitype/StillImage"/>
<dc:title/>
</cc:Work>
</rdf:RDF>
</metadata>
<g transform="translate(-90.336 .37797)">
<rect x="90.336" y="-.37797" width="254" height="254" fill="#faa" style="paint-order:normal"/>
</g>
<g transform="translate(-90.336 .37797)">
<path d="m156.94 154.5c-0.66817 10.424 11.571 37.019 34.69 28.065l4.4917-29.131 39.354-28.322-2.4568 23.246-16.064 41.672s13.695 11.226 19.842 9.2219c15.858-6.0991 43.07-38.559 45.876-50.185 2.6727-2.94-2.079-7.7613-3.2466-10.863-8.9732-32.332-93.621-61.88-122.49 16.296z" fill="#e15858"/>
</g>
<g transform="translate(-90.336 .37797)">
<path d="m236.52 147.6s41.57 1.4313 55.468 9.4494c28.331 8.8199 46.68 96.951 46.68 96.951h-223.01c13.321-62.59 5.0954-84.507 41.283-99.503l32.582 3.6699 9.9506 23.639 9.5439 2.8348 6.3311-3.3073" fill="#e15858"/>
</g>
<g transform="translate(-90.336 .37797)">
<path d="m279.14 152.89c-10.415 4.5059-20.272 11.777-25.469 16.691-6.6149 8.1517-21.888 24.953-39.732 25.737 26.883-0.29528 41.303-23.094 41.303-23.094 2.7403-3.0238 24.74-13.689 30.396-17.848 0 0-4.3144-1.5968-6.4974-1.4858z" fill-opacity=".11245"/>
</g>
<g transform="translate(-90.336 .37797)">
<path d="m189.44 153.7 15.756-0.8384 23.966-19.4 6.9499-34.061 1.1526 0.13363-1.2695 19.536 2.94-0.26727-3.4598 6.3088c-0.53454 1.6036-0.29691 19.817 1.0394 22.49 0.47247 2.5041-17.718 41.483-19.56 42.428-2.0789 1.2757-5.7641 5.5751-8.9769 5.5751-2.372 0.26727-10.437-3.1555-11.339-4.1577-0.90203-0.7684-6.5453-6.1849-6.679-7.9889-0.33409-1.2194 0.15886-15.257 0.15886-15.257l-0.48764-8.4728-0.26831-4.6618" fill="#fca"/>
<path d="m189.44 153.7c-0.22829 1.1536 0.0825 4.4683 0.0825 4.4683 6.2082 1.0324 13.557 1.2599 16.765 0.0572 3.1404-1.2027 21.807-15.479 23.149-18.526 2.94-3.2072 4.5161-23.958 4.1382-23.958-0.37798 0-14.824 16.551-14.824 16.551z" fill-opacity=".32932"/>
</g>
<g transform="translate(-90.336 .37797)">
<path d="m173.86 113.99c15.502 9.0872 3.6053 74.859 28.461 89.425" fill="none" stroke="#cb0000"/>
</g>
<g transform="translate(-90.336 .37797)">
<path d="m202.32 203.42c-6.4145 9.4881 5.6155 43.408-7.0798 53.03" fill="none" stroke="#cb0000"/>
</g>
<g transform="translate(-90.336 .37797)">
<path d="m182.14 151.81c5.3454 3.2072 19.512 2.9886 23.055 1.0515 5.1499-1.7009 24.793-16.62 25.053-18.691 1.2027-1.1693 5.6126-33.008 5.6126-33.008s3.7669-20.47-5.7422-31.609c-22.305-26.13-68.906-12.267-67.806 14.205 0.1601 3.8508 3.7771 13.25 4.629 14.72 0.66817 1.3029-0.27296 5.7485-0.27296 9.223-1.47 3.7418 12.541 41.415 15.471 44.108z" fill="#fca"/>
</g>
<g transform="translate(-90.336 .37797)">
<path d="m236 119.07c0.46772 0.43431 1.2695 0.23386 2.94-0.26727 0.83522-0.56795 3.107-2.0379 3.4745-3.2072 2.6282-1.1693 5.0465-2.9617 5.8799-4.009 1.2027-1.8041 4.494-6.9969 5.2958-10.572 0.96885-3.0736 2.2718-6.4479 0.40091-10.424-0.80181-2.2718-4.009-4.4099-5.2118-4.009l-11.343 7.8321s-1.7038 22.918-1.4366 24.656z" fill="#fca"/>
</g>
<g transform="translate(-90.336 .37797)">
<path d="m240.32 112.89c-23.916 52.728-11.924 72.603-38.002 90.526" fill="none" stroke="#cb0000" stroke-linejoin="round"/>
</g>
<g transform="translate(-90.336 .37797)">
<path d="m239.61 112.79s0.35919-1.6569 0.86457-3.1208c-0.68488-0.46772-2.0382 0.10728-2.5059-0.0598-0.28397-0.0501-0.80621-0.63643-0.73939-1.4382 0 0 0.97759-0.69314 1.4286-1.7288 0.45102-0.61806 0.95215-2.205 0.61806-3.1404 0.35079-0.28397 2.0045-0.36748 2.5391-0.0668 0.51783 0.11693 2.1215 2.0713 2.4054 3.1404 0.61806 1.5869-3.2072 6.949-3.2072 6.949-0.70871 0-0.97794-0.0857-1.4032-0.53456z"/>
</g>
<g transform="translate(-90.336 .37797)">
<path d="m164.45 91.659c-0.4009 1.2027-3.9756 1.6036-4.1427-0.26727-1.1693-1.1359-1.47-0.10023-3.4745 4.9445 0.83522-2.6059-1.0691-3.4745 0.26726-4.5436 1.3364-1.0691-2.7395-0.20045-3.7418-1.2027-1.4532-0.67474-3.0908-2.7778-3.8754-5.479 0 0 4.744 5.7797 5.9133 3.1738 1.1238-2.5046 1.1693-5.2452-0.16704-6.9156-2.1716-0.56795-6.7258-4.1961-7.4942-5.6995-1.3029-0.86863-2.0155-4.9369-1.6814-5.7053 0.10023 2.2718 3.3321 5.8165 5.3164 5.722-2.5513-4.6775-3.9713-13.147-3.3571-15.699-0.0472-3.4018 4.1966-5.8514 4.8108-8.6863 3.4963-1.0394 8.4459-7.4525 11.092-7.2163 1.6536-1.0394 0.36709-4.1103 1.7372-4.6772 1.2284-1.4647 6.4589-1.6509 8.0181-1.6036 1.3229 0.28348 4.3231-1.7713 7.1697-2.2438-1.3938 0.43704-6.368-2.2981-9.5752 0.37288 0.82682-2.4628 2.4049-2.5317 2.94-3.2072 0.84486-0.83304 8.6862-0.51784 11.359-2.8063 1.0524-1.7038 5.9467-1.1359 9.0872-3.4745 0.46772-1.2027 3.1404-0.96885 4.1761-3.0068-1.9043-1.7707-2.9699-1.385-4.3765-1.3698-3.9753 0.35725 7.0709-3.4586 9.154-1.1025 1.0023 1.8709 6.2808-0.26727 8.2854 0.66817 2.1048 0.23386 7.1829 4.2763 10.424 2.6727 0.73499-1.0357 2.3052-0.13364 3.4745-1.0691 0.93544-0.73499 2.7729 1.5368 4.5436 1.2027 1.4366 0.20045 1.4032 3.4077 1.47 4.2763-0.7684 1.1359 4.1093 2.9734 7.2163 6.949 3.3075 0.7684 2.0713 7.7508 4.8108 8.0181 1.8343 0.10214 8.0181 3.1404 8.7865 4.6104-1.1025 1.0357-1.3698 3.274 0.43432 7.4167 3.2072 0.20045 4.3097 4.0759 8.3188 6.9156-0.43432 0.80181-2.9066-0.53454-4.7106 0.43431 3.0068 0.83522 3.8086 5.8298 5.8799 6.6817 1.5535 0.60136 3.558 7.1662 2.94 8.8199-1.0691 1.2695-0.45449 2.4905-1.6036 3.6081 0.81851-1.5702-0.20045-1.2194-0.4009-4.8109 0.18757 1.7267-0.48443 5.3621-1.2027 5.7463-1.4533 1.8041 0.23386 12.044-2.0045 14.566-0.68508 2.8584-5.8494 4.0647-6.6817 3.3409 0.80181-3.4745 1.8709-7.0158 0.40091-10.424-1.6704-2.5057-3.0402-3.7084-5.2118-4.009-1.1359 2.1047-0.43431 5.7129-2.2718 7.6172 0.20045 4.6104 5.9253 6.2066 6.0136 7.2163-4.4282 2.6765-11.406-3.0001-15.903-1.6036-3.4411-2.0379-3.4745-8.8867-8.0181-11.359-2.0379 0.80181-4.2763-5.1783-6.4145-5.479-0.91678 3.2183-1.4953 2.4942-5.0288 4.1339 3.2811-2.804 1.287-1.3944 1.6879-4.0002-2.6059-0.60136-1.9377-3.2072-4.009-3.2072-5.2591-2.092-5.9296 4.2478-9.0872 4.6772 2.6059-3.1738 0.46772-5.6795 2.94-9.1206-2.1159 1.4286-3.3101 1.3164-4.0424 2.6393-0.44885 1.1103-2.3463 0.50478-4.7774 2.3386-0.88009-1.678-0.43374-3.5246-1.9503-2.9081-5.3448 5.0555-3.5537-0.1332-8.0723 0.76996 1.5828 0.09449-1.64-1.4484-3.3409-0.64524-1.252 0.7087-3.7235-0.75526-5.2118-0.02293-0.0472 1.0158-5.7523 1.8815-6.8154 4.8109-2.197 1.4883-7.1292-2.4163-7.4835-0.66817 0 0 0.96885 8.1183-2.5391 9.889z" fill="#784421"/>
</g>
</svg>
